<svg width="56" height="56" viewBox="0 0 56 56" fill="none" xmlns="http://www.w3.org/2000/svg">
<rect width="56" height="56" rx="14" fill="#615EF0"/>
<path d="M7.18506 36.042C6.34506 36.042 5.92506 35.818 5.92506 35.37V20.838C5.92506 20.39 6.34506 20.166 7.18506 20.166H7.77306C8.61306 20.166 9.03306 20.39 9.03306 20.838V26.277C9.35506 25.885 9.76806 25.549 10.2721 25.269C10.7901 24.989 11.3641 24.849 11.9941 24.849C12.5261 24.849 12.9881 24.919 13.3801 25.059C13.7721 25.185 14.1011 25.388 14.3671 25.668C14.6331 25.948 14.8291 26.305 14.9551 26.739C15.0951 27.159 15.1651 27.663 15.1651 28.251V35.37C15.1651 35.818 14.7451 36.042 13.9051 36.042H13.3171C12.4771 36.042 12.0571 35.818 12.0571 35.37V28.713C12.0571 28.307 11.9451 27.992 11.7211 27.768C11.5111 27.53 11.1751 27.411 10.7131 27.411C10.5031 27.411 10.3071 27.453 10.1251 27.537C9.94306 27.607 9.78206 27.705 9.64206 27.831C9.50206 27.957 9.38306 28.09 9.28506 28.23C9.18706 28.37 9.10306 28.503 9.03306 28.629V35.37C9.03306 35.818 8.61306 36.042 7.77306 36.042H7.18506Z" fill="#DDDDFF"/>
<path d="M22.7761 36.168C20.8721 36.168 19.4791 35.664 18.5971 34.656C17.7291 33.634 17.2951 32.276 17.2951 30.582C17.2951 29.196 17.5121 28.083 17.9461 27.243C18.3801 26.403 18.9821 25.794 19.7521 25.416C20.5221 25.038 21.4041 24.849 22.3981 24.849C23.5041 24.849 24.3861 25.101 25.0441 25.605C25.7021 26.095 26.1781 26.753 26.4721 27.579C26.7801 28.391 26.9341 29.287 26.9341 30.267C26.9341 30.379 26.8641 30.54 26.7241 30.75C26.5841 30.946 26.4301 31.121 26.2621 31.275C26.0941 31.429 25.9611 31.506 25.8631 31.506H20.5081C20.5781 32.346 20.8231 32.927 21.2431 33.249C21.6771 33.557 22.2371 33.711 22.9231 33.711C23.3711 33.711 23.7631 33.655 24.0991 33.543C24.4491 33.431 24.7361 33.326 24.9601 33.228C25.1981 33.116 25.3661 33.06 25.4641 33.06C25.6181 33.06 25.7791 33.165 25.9471 33.375C26.1151 33.585 26.2551 33.816 26.3671 34.068C26.4931 34.32 26.5561 34.516 26.5561 34.656C26.5561 34.922 26.4161 35.153 26.1361 35.349C25.8701 35.531 25.5271 35.685 25.1071 35.811C24.7011 35.937 24.2811 36.028 23.8471 36.084C23.4271 36.14 23.0701 36.168 22.7761 36.168ZM20.5081 29.427H23.9101C23.9101 28.811 23.7911 28.307 23.5531 27.915C23.3151 27.509 22.9301 27.306 22.3981 27.306C21.9641 27.306 21.5721 27.46 21.2221 27.768C20.8721 28.062 20.6341 28.615 20.5081 29.427ZM32.1224 36.168C31.6324 36.168 31.1914 36.105 30.7994 35.979C30.4214 35.839 30.0994 35.629 29.8334 35.349C29.5814 35.069 29.3854 34.719 29.2454 34.299C29.1194 33.865 29.0564 33.354 29.0564 32.766V20.838C29.0564 20.39 29.4764 20.166 30.3164 20.166H30.9044C31.7444 20.166 32.1644 20.39 32.1644 20.838V32.808C32.1644 33.116 32.2204 33.347 32.3324 33.501C32.4584 33.641 32.6544 33.711 32.9204 33.711C33.0184 33.711 33.1234 33.697 33.2354 33.669C33.3474 33.641 33.4314 33.627 33.4874 33.627C33.6274 33.627 33.7464 33.746 33.8444 33.984C33.9424 34.208 34.0124 34.446 34.0544 34.698C34.1104 34.936 34.1384 35.083 34.1384 35.139C34.1384 35.461 34.0124 35.699 33.7604 35.853C33.5224 35.993 33.2424 36.077 32.9204 36.105C32.6124 36.147 32.3464 36.168 32.1224 36.168ZM38.3568 36.168C37.8668 36.168 37.4258 36.105 37.0338 35.979C36.6558 35.839 36.3338 35.629 36.0678 35.349C35.8158 35.069 35.6198 34.719 35.4798 34.299C35.3538 33.865 35.2908 33.354 35.2908 32.766V20.838C35.2908 20.39 35.7108 20.166 36.5508 20.166H37.1388C37.9788 20.166 38.3988 20.39 38.3988 20.838V32.808C38.3988 33.116 38.4548 33.347 38.5668 33.501C38.6928 33.641 38.8888 33.711 39.1548 33.711C39.2528 33.711 39.3578 33.697 39.4698 33.669C39.5818 33.641 39.6658 33.627 39.7218 33.627C39.8618 33.627 39.9808 33.746 40.0788 33.984C40.1768 34.208 40.2468 34.446 40.2888 34.698C40.3448 34.936 40.3728 35.083 40.3728 35.139C40.3728 35.461 40.2468 35.699 39.9948 35.853C39.7568 35.993 39.4768 36.077 39.1548 36.105C38.8468 36.147 38.5808 36.168 38.3568 36.168ZM45.4899 36.168C43.8239 36.168 42.5569 35.678 41.6889 34.698C40.8209 33.718 40.3869 32.318 40.3869 30.498C40.3869 28.664 40.8209 27.264 41.6889 26.298C42.5569 25.332 43.8239 24.849 45.4899 24.849C47.1559 24.849 48.4159 25.332 49.2699 26.298C50.1379 27.264 50.5719 28.664 50.5719 30.498C50.5719 32.318 50.1379 33.718 49.2699 34.698C48.4159 35.678 47.1559 36.168 45.4899 36.168ZM45.4899 33.711C46.1619 33.711 46.6519 33.438 46.9599 32.892C47.2679 32.346 47.4219 31.548 47.4219 30.498C47.4219 29.448 47.2679 28.657 46.9599 28.125C46.6519 27.579 46.1619 27.306 45.4899 27.306C44.8179 27.306 44.3209 27.579 43.9989 28.125C43.6909 28.657 43.5369 29.448 43.5369 30.498C43.5369 31.548 43.6909 32.346 43.9989 32.892C44.3209 33.438 44.8179 33.711 45.4899 33.711Z" fill="white"/>
</svg>
